<mxfile host="app.diagrams.net" modified="2021-08-17T06:01:16.283Z" agent="5.0 (Macintosh; Intel Mac OS X 10_15_7) AppleWebKit/537.36 (KHTML, like Gecko) Chrome/92.0.4515.131 Safari/537.36" etag="GaClMHdpNC6zuU53eH5-" version="14.9.7" type="github">
  <diagram id="X7kwkGdZq3H8oBrxgHaK" name="Page-1">
    <mxGraphModel dx="946" dy="518" grid="1" gridSize="10" guides="1" tooltips="1" connect="1" arrows="1" fold="1" page="1" pageScale="1" pageWidth="827" pageHeight="1169" math="0" shadow="0">
      <root>
        <mxCell id="0" />
        <mxCell id="1" parent="0" />
        <mxCell id="fBUn0Swuh8hTkCifJVkB-2" value="&lt;h1&gt;実装する機能&lt;/h1&gt;&lt;p&gt;&lt;/p&gt;&lt;ul&gt;&lt;li&gt;&lt;font style=&quot;font-size: 12px&quot;&gt;ログイン機能&lt;/font&gt;&lt;/li&gt;&lt;li&gt;プレイリスト生成機能&lt;/li&gt;&lt;/ul&gt;&lt;ul&gt;&lt;li&gt;アンケート機能&lt;/li&gt;&lt;li&gt;学習機能&lt;/li&gt;&lt;li&gt;プレイリスト設計機能&lt;span style=&quot;white-space: pre&quot;&gt;	&lt;/span&gt;&lt;/li&gt;&lt;/ul&gt;&lt;p&gt;&lt;/p&gt;" style="text;html=1;spacing=5;spacingTop=-20;whiteSpace=wrap;overflow=hidden;rounded=0;shadow=0;glass=0;fontColor=#333333;strokeColor=#000000;" vertex="1" parent="1">
          <mxGeometry x="10" y="20" width="420" height="150" as="geometry" />
        </mxCell>
      </root>
    </mxGraphModel>
  </diagram>
</mxfile>
